<?xml version="1.0" encoding="utf-8"?>
<!-- Generator: Adobe Illustrator 25.0.0, SVG Export Plug-In . SVG Version: 6.00 Build 0)  -->
<svg version="1.1" id="Capa_1" xmlns="http://www.w3.org/2000/svg" xmlns:xlink="http://www.w3.org/1999/xlink" x="0px" y="0px"
	 viewBox="0 0 589.53 362.5" style="enable-background:new 0 0 589.53 362.5;" xml:space="preserve">
<style type="text/css">
	.st0{fill:#FFFFFF;}
</style>
<g>
	<path class="st0" d="M132.91,65.4c0,0,10.38-6.67,11.42-11.57c0,0-6.67-8.3-4.3-15.13c2.37-6.82,37.07-39.3,65.1-38.7
		s44.46,18.14,46.12,46.41c1.44,24.5-19.26,57.05-40.68,79.17c-37.19,38.4-30.56,56.43-27.98,63.78
		c35.82-84.16,146.95-91.05,173.65-75.92c0,0-41.96-7.97-110.18,58.57c63.84-34.33,120.03-68.61,172.61-25.36
		c0,0-58.77-15.68-106.03,23.28c-44.31,36.53-67.03,46.27-67.03,46.27s8.91,5.68,70.99-35.23c33.25-21.91,130.15-46.39,154.56,28.55
		c0,0-50.18-50.72-122.64,7.27c-43.05,34.45-75.03,78.74-136.57,78.74s-93.57-45.38-93.57-87.79s32.03-68.66,62.13-94.16
		s54.13-54.13,54.13-71.33s-10.23-27.73-23.28-27.73s-22.84,10.68-29.36,22.24S166.57,71.34,132.91,65.4z"/>
	<g>
		<path class="st0" d="M100.85,302.54v-0.46h11.71c3.42,0,5.85,0.14,7.28,0.43c1.43,0.29,2.79,0.83,4.1,1.63
			c1.3,0.81,2.42,1.97,3.33,3.49c0.92,1.52,1.38,3.25,1.38,5.18c0,3.81-1.88,6.82-5.63,9.02c3.24,0.55,5.69,1.89,7.34,4.02
			c1.65,2.13,2.48,4.71,2.48,7.75c0,2.83-0.71,5.41-2.12,7.74c-1.42,2.32-3.04,3.87-4.86,4.63c-1.82,0.76-4.38,1.15-7.66,1.15h-17.4
			v-0.46c1.39,0,2.27-0.28,2.66-0.84c0.39-0.56,0.58-1.99,0.58-4.29v-33.91c0-1.63-0.05-2.74-0.14-3.33
			c-0.09-0.59-0.39-1.03-0.9-1.31C102.48,302.68,101.77,302.54,100.85,302.54z M109.23,303.03v19.78h5.47
			c3.71,0,6.17-1.06,7.38-3.18c1.21-2.12,1.82-4.23,1.82-6.33c0-2.26-0.47-4.15-1.41-5.67c-0.94-1.52-2.31-2.66-4.11-3.44
			c-1.8-0.77-4.46-1.16-7.96-1.16H109.23z M112.74,323.76h-3.52v14.28c0,1.98,0.08,3.26,0.23,3.85c0.15,0.59,0.5,1.21,1.04,1.87
			s1.41,1.18,2.61,1.57s2.94,0.6,5.2,0.6c3.51,0,5.98-0.81,7.43-2.43c1.45-1.62,2.17-4.02,2.17-7.2c0-3.3-0.64-5.99-1.93-8.07
			c-1.28-2.08-2.74-3.34-4.36-3.79C120.01,323.98,117.04,323.76,112.74,323.76z"/>
		<path class="st0" d="M139.32,319.3v-0.32h17.69v3.88h-0.29c-0.38-1.44-0.7-2.29-0.96-2.54c-0.26-0.25-0.9-0.38-1.92-0.38h-9.29
			v12.63h8.62c0.85,0,1.4-0.08,1.62-0.24c0.23-0.16,0.35-0.39,0.36-0.7h0.29v2.66h-0.29c-0.06-0.37-0.21-0.62-0.45-0.75
			c-0.24-0.13-0.67-0.19-1.31-0.19h-8.85v8.69c0,1.31,0.12,2.26,0.36,2.84c0.24,0.58,0.63,0.94,1.15,1.09s1.33,0.22,2.4,0.22h4.96
			c1.58,0,2.58-0.05,3.02-0.16s0.81-0.32,1.12-0.65c0.3-0.32,0.54-1.03,0.71-2.12h0.29v3.86h-19.24v-0.29
			c0.65-0.04,1.14-0.16,1.48-0.37c0.34-0.21,0.51-0.75,0.51-1.63V322.1c0-1.03-0.09-1.76-0.27-2.18
			C140.86,319.51,140.29,319.3,139.32,319.3z"/>
		<path class="st0" d="M161.36,347.12v-0.29c0.88,0,1.45-0.17,1.71-0.5c0.26-0.33,0.39-0.9,0.39-1.7v-23.03
			c0-0.81-0.1-1.4-0.31-1.77c-0.2-0.36-0.82-0.56-1.83-0.58v-0.29h7.55v0.29c-0.7,0-1.19,0.09-1.47,0.27
			c-0.28,0.18-0.47,0.39-0.55,0.63c-0.09,0.24-0.13,0.79-0.13,1.64v19.76c0,1.69,0.41,2.89,1.22,3.58c0.81,0.69,2.21,1.04,4.18,1.04
			h3.43c1.65,0,2.87-0.41,3.64-1.22c0.77-0.82,1.2-2.35,1.29-4.61h0.29v6.76H161.36z"/>
		<path class="st0" d="M184.45,347.12v-0.29c0.88,0,1.45-0.17,1.71-0.5c0.26-0.33,0.39-0.9,0.39-1.7v-23.03
			c0-0.81-0.1-1.4-0.31-1.77c-0.2-0.36-0.82-0.56-1.83-0.58v-0.29h7.55v0.29c-0.7,0-1.19,0.09-1.47,0.27
			c-0.28,0.18-0.47,0.39-0.55,0.63c-0.09,0.24-0.13,0.79-0.13,1.64v19.76c0,1.69,0.41,2.89,1.22,3.58c0.81,0.69,2.21,1.04,4.18,1.04
			h3.43c1.65,0,2.87-0.41,3.64-1.22c0.77-0.82,1.2-2.35,1.29-4.61h0.29v6.76H184.45z"/>
		<path class="st0" d="M208.59,319.3v-0.32h17.69v3.88H226c-0.38-1.44-0.7-2.29-0.96-2.54c-0.26-0.25-0.9-0.38-1.92-0.38h-9.29
			v12.63h8.62c0.85,0,1.4-0.08,1.62-0.24c0.23-0.16,0.35-0.39,0.36-0.7h0.29v2.66h-0.29c-0.06-0.37-0.21-0.62-0.45-0.75
			c-0.24-0.13-0.67-0.19-1.31-0.19h-8.85v8.69c0,1.31,0.12,2.26,0.36,2.84c0.24,0.58,0.63,0.94,1.15,1.09s1.33,0.22,2.4,0.22h4.96
			c1.58,0,2.58-0.05,3.02-0.16s0.81-0.32,1.12-0.65c0.3-0.32,0.54-1.03,0.71-2.12h0.29v3.86h-19.24v-0.29
			c0.65-0.04,1.14-0.16,1.48-0.37c0.34-0.21,0.51-0.75,0.51-1.63V322.1c0-1.03-0.09-1.76-0.27-2.18
			C210.13,319.51,209.56,319.3,208.59,319.3z"/>
		<path class="st0" d="M257.11,342.7v4.41h-26.69l21.87-27.08h-14.65c-1.21,0-2.04,0.16-2.5,0.47c-0.45,0.31-0.77,1.08-0.95,2.3
			h-0.29l0.15-3.84h23.16l-21.94,27.1h18.67c1.08,0,1.81-0.22,2.19-0.67c0.38-0.45,0.6-1.34,0.68-2.69H257.11z"/>
		<path class="st0" d="M276.13,334.16h-8.26l-4.26,10.62c-0.29,0.76-0.44,1.24-0.44,1.41c0,0.42,0.31,0.63,0.94,0.63v0.29h-4.19
			v-0.29c0.56,0,1.03-0.14,1.41-0.41c0.38-0.27,0.8-0.99,1.26-2.13l10.2-25.74h0.51l10.04,24.86c0,0.13,0.26,0.73,0.77,1.81
			c0.51,1.08,1.3,1.62,2.35,1.62v0.29h-6.57v-0.29c0.6,0,0.9-0.24,0.9-0.71c0-0.32-0.15-0.83-0.44-1.53
			c-0.05-0.05-0.1-0.13-0.13-0.25c-0.03-0.13-0.04-0.19-0.06-0.19L276.13,334.16z M268.14,333.38h7.61l-3.8-9.59L268.14,333.38z"/>
		<path class="st0" d="M356.3,346.66v0.46h-18.16c-3.48,0-6.54-0.38-9.16-1.13c-2.62-0.75-5.29-2.19-8.01-4.29s-4.92-4.73-6.6-7.87
			c-1.68-3.14-2.52-6.35-2.52-9.63c0-3.59,1.05-7.16,3.16-10.73c2.11-3.57,5.11-6.47,9-8.7c3.89-2.23,8.31-3.35,13.24-3.35
			c4.42,0,9.1,0.98,14.03,2.94l1.87,5.2h-0.45c-1.57-2-3.71-3.65-6.43-4.97c-2.72-1.31-5.75-1.97-9.09-1.97
			c-5.81,0-10.56,2.19-14.27,6.56s-5.56,9.8-5.56,16.28c0,2.69,0.31,5.09,0.92,7.2s1.76,4.19,3.44,6.24
			c1.68,2.05,3.49,3.56,5.41,4.53s4.08,1.64,6.47,2.02c2.38,0.38,4.28,0.55,5.69,0.5l2.42-0.06c2.73-0.1,4.44-0.36,5.12-0.76
			c0.68-0.41,1.02-1.45,1.02-3.12v-6.82c0-1.33-0.28-2.22-0.83-2.68c-0.55-0.46-1.34-0.66-2.35-0.6v-0.46h11.65v0.46
			c-1.3,0-2.18,0.25-2.61,0.76c-0.44,0.51-0.66,1.48-0.66,2.93v7.08c0,1.42,0.19,2.45,0.57,3.07c0.38,0.62,1.07,0.93,2.06,0.93
			H356.3z"/>
		<path class="st0" d="M360.82,347.12v-0.29c0.88,0,1.45-0.17,1.71-0.5c0.26-0.33,0.39-0.9,0.39-1.7v-23.03c0-0.81-0.1-1.4-0.3-1.77
			c-0.21-0.36-0.82-0.56-1.83-0.58v-0.29h7.55v0.29c-0.7,0-1.19,0.09-1.47,0.27c-0.28,0.18-0.47,0.39-0.55,0.63
			c-0.09,0.24-0.13,0.79-0.13,1.64v19.76c0,1.69,0.41,2.89,1.22,3.58c0.81,0.69,2.21,1.04,4.18,1.04H375c1.65,0,2.87-0.41,3.63-1.22
			s1.2-2.35,1.29-4.61h0.29v6.76H360.82z"/>
		<path class="st0" d="M399.52,318.55c3.95,0,7.18,1.2,9.69,3.6c2.51,2.4,3.76,5.4,3.76,8.99c0,4.62-1.45,8.52-4.36,11.67
			c-2.9,3.16-6.76,4.74-11.56,4.74c-3.9,0-7.09-1.27-9.57-3.82c-2.48-2.55-3.73-5.6-3.73-9.17c0-2.41,0.6-4.88,1.8-7.41
			c1.2-2.53,3-4.6,5.41-6.2C393.37,319.35,396.22,318.55,399.52,318.55z M399.4,346.07c1.94,0,3.85-0.52,5.73-1.56
			s3.37-2.47,4.45-4.29c1.08-1.82,1.62-3.69,1.62-5.62c0-2.73-0.73-5.2-2.19-7.43s-3.35-3.97-5.68-5.24
			c-2.32-1.26-4.47-1.89-6.45-1.89c-2.79,0-5.32,1.05-7.59,3.15c-2.27,2.1-3.41,4.71-3.41,7.83c0,3.99,1.39,7.49,4.17,10.51
			C392.84,344.56,395.95,346.07,399.4,346.07z"/>
		<path class="st0" d="M417.75,319.26v-0.29h7.32c2.14,0,3.66,0.09,4.55,0.27c0.89,0.18,1.75,0.52,2.56,1.02
			c0.82,0.5,1.51,1.23,2.08,2.18s0.86,2.03,0.86,3.24c0,2.38-1.17,4.26-3.52,5.64c2.03,0.34,3.55,1.18,4.59,2.51
			c1.03,1.33,1.55,2.95,1.55,4.84c0,1.77-0.44,3.38-1.33,4.83c-0.89,1.45-1.9,2.42-3.04,2.89s-2.74,0.72-4.79,0.72h-10.87v-0.29
			c0.87,0,1.42-0.17,1.66-0.53c0.24-0.35,0.36-1.24,0.36-2.68v-21.2c0-1.02-0.03-1.71-0.09-2.08s-0.25-0.64-0.56-0.82
			S418.33,319.26,417.75,319.26z M422.99,319.56v12.36h3.42c2.32,0,3.86-0.66,4.62-1.99c0.76-1.33,1.14-2.64,1.14-3.96
			c0-1.41-0.29-2.6-0.88-3.54s-1.44-1.67-2.57-2.15s-2.79-0.73-4.98-0.73H422.99z M425.19,332.52h-2.2v8.92
			c0,1.24,0.05,2.04,0.14,2.41s0.31,0.76,0.65,1.17c0.34,0.41,0.88,0.74,1.63,0.98s1.83,0.37,3.25,0.37c2.19,0,3.74-0.51,4.64-1.52
			s1.36-2.51,1.36-4.5c0-2.06-0.4-3.75-1.2-5.04c-0.8-1.3-1.71-2.09-2.72-2.37S427.88,332.52,425.19,332.52z"/>
		<path class="st0" d="M455.75,334.16h-8.26l-4.26,10.62c-0.29,0.76-0.44,1.24-0.44,1.41c0,0.42,0.31,0.63,0.94,0.63v0.29h-4.19
			v-0.29c0.56,0,1.03-0.14,1.41-0.41c0.38-0.27,0.8-0.99,1.26-2.13l10.2-25.74h0.51l10.04,24.86c0,0.13,0.26,0.73,0.77,1.81
			c0.51,1.08,1.3,1.62,2.35,1.62v0.29h-6.57v-0.29c0.6,0,0.9-0.24,0.9-0.71c0-0.32-0.15-0.83-0.44-1.53
			c-0.05-0.05-0.1-0.13-0.13-0.25c-0.03-0.13-0.04-0.19-0.06-0.19L455.75,334.16z M447.76,333.38h7.61l-3.8-9.59L447.76,333.38z"/>
		<path class="st0" d="M468.63,347.12v-0.29c0.88,0,1.45-0.17,1.71-0.5s0.39-0.9,0.39-1.7v-23.03c0-0.81-0.1-1.4-0.31-1.77
			c-0.2-0.36-0.82-0.56-1.83-0.58v-0.29h7.55v0.29c-0.7,0-1.19,0.09-1.47,0.27s-0.47,0.39-0.55,0.63c-0.09,0.24-0.13,0.79-0.13,1.64
			v19.76c0,1.69,0.41,2.89,1.22,3.58c0.81,0.69,2.21,1.04,4.18,1.04h3.44c1.65,0,2.87-0.41,3.63-1.22s1.2-2.35,1.29-4.61h0.29v6.76
			H468.63z"/>
	</g>
	<rect y="360.2" class="st0" width="589.53" height="2.3"/>
</g>
</svg>
