<svg id="Capa_1" data-name="Capa 1" xmlns="http://www.w3.org/2000/svg" viewBox="0 0 32 32"><defs><style>.cls-1{fill:#fff;}</style></defs><path class="cls-1" d="M25.89,32H6.11A6,6,0,0,1,0,26V9.62a6,6,0,0,1,6.11-6H25.89a6,6,0,0,1,6.11,6V26A6,6,0,0,1,25.89,32ZM6.11,6.33A3.34,3.34,0,0,0,2.73,9.62V26a3.35,3.35,0,0,0,3.38,3.3H25.89A3.35,3.35,0,0,0,29.27,26V9.62a3.34,3.34,0,0,0-3.38-3.29Z"/><path class="cls-1" d="M30.63,17.25a1.35,1.35,0,0,1-1.36-1.33,3.35,3.35,0,0,0-3.38-3.3H6.11a3.35,3.35,0,0,0-3.38,3.3,1.35,1.35,0,0,1-1.36,1.33A1.35,1.35,0,0,1,0,15.92a6,6,0,0,1,6.11-6H25.89a6,6,0,0,1,6.11,6A1.35,1.35,0,0,1,30.63,17.25Z"/><rect class="cls-1" x="6.75" width="2.16" height="5.31"/><rect class="cls-1" x="23.09" width="2.16" height="5.31"/></svg>