<svg id="Capa_1" data-name="Capa 1" xmlns="http://www.w3.org/2000/svg" viewBox="0 0 32 31.94"><defs><style>.cls-1{fill:#fff;}.cls-2{fill:none;stroke:#fff;stroke-linecap:round;stroke-linejoin:round;stroke-width:2.7px;}</style></defs><path class="cls-1" d="M11.59,14.56a7.25,7.25,0,1,1,7.25-7.25A7.26,7.26,0,0,1,11.59,14.56Zm0-11.8a4.55,4.55,0,1,0,4.55,4.55A4.55,4.55,0,0,0,11.59,2.76Z" transform="translate(0 -0.06)"/><path class="cls-1" d="M11.81,32A22,22,0,0,1,.67,29,1.36,1.36,0,0,1,0,27.72a11.83,11.83,0,0,1,23.62,0A1.35,1.35,0,0,1,23,29,22.06,22.06,0,0,1,11.81,32Zm-9-4.95a19.27,19.27,0,0,0,18.07,0,9.12,9.12,0,0,0-18.07,0Z" transform="translate(0 -0.06)"/><path class="cls-1" d="M24.41,17.16a4.7,4.7,0,1,1,4.69-4.69A4.7,4.7,0,0,1,24.41,17.16Zm0-7.15a2.46,2.46,0,1,0,2.45,2.46A2.46,2.46,0,0,0,24.41,10Z" transform="translate(0 -0.06)"/><path class="cls-1" d="M24.54,27.73a11,11,0,0,1-3-.34c-.6-.15-.48-.92-.32-1.52s0-.88.55-.73a11.44,11.44,0,0,0,7.94-.88,5.22,5.22,0,0,0-9.12-2.45,1.12,1.12,0,1,1-1.7-1.45A7.47,7.47,0,0,1,32,24.82a1.14,1.14,0,0,1-.55,1A13.69,13.69,0,0,1,24.54,27.73Z" transform="translate(0 -0.06)"/><path class="cls-2" d="M22.27,27.79" transform="translate(0 -0.06)"/></svg>