<svg id="Capa_1" data-name="Capa 1" xmlns="http://www.w3.org/2000/svg" viewBox="0 0 32 31.96"><defs><style>.cls-1{fill:#fff;}</style></defs><path class="cls-1" d="M1.24,17.94a1.24,1.24,0,0,1-.88-.38,1.33,1.33,0,0,1,0-1.82L15.16.38a1.19,1.19,0,0,1,1.75,0L31.64,15.67a1.33,1.33,0,0,1,0,1.82,1.22,1.22,0,0,1-1.76,0L16,3.11,2.12,17.56A1.22,1.22,0,0,1,1.24,17.94Z" transform="translate(0)"/><path class="cls-1" d="M24.75,32H7.25a3.84,3.84,0,0,1-3.76-3.9V13.13a1.25,1.25,0,1,1,2.49,0V28.06a1.3,1.3,0,0,0,1.27,1.32h17.5A1.3,1.3,0,0,0,26,28.06V13.13a1.25,1.25,0,1,1,2.49,0V28.06A3.84,3.84,0,0,1,24.75,32Z" transform="translate(0)"/><path class="cls-1" d="M19.83,32a1.27,1.27,0,0,1-1.24-1.29V23.06a1.71,1.71,0,0,0-1.67-1.74H15.08a1.71,1.71,0,0,0-1.67,1.74v7.61a1.25,1.25,0,1,1-2.49,0V23.06a4.25,4.25,0,0,1,4.16-4.32h1.84a4.25,4.25,0,0,1,4.16,4.32v7.61A1.27,1.27,0,0,1,19.83,32Z" transform="translate(0)"/></svg>