<svg id="Capa_1" data-name="Capa 1" xmlns="http://www.w3.org/2000/svg" viewBox="0 0 589.53 362.5"><defs><style>.cls-1,.cls-2{fill:#fff;}.cls-2{font-size:62.61px;font-family:FelixTitlingMT, Felix Titling;letter-spacing:0.05em;}.cls-3,.cls-5,.cls-6{font-size:39.13px;}.cls-3{letter-spacing:0.05em;}.cls-4{letter-spacing:0.05em;}.cls-5{letter-spacing:0.02em;}.cls-6{letter-spacing:0.01em;}</style></defs><path class="cls-1" d="M132.91,65.4s10.38-6.67,11.41-11.56c0,0-6.67-8.31-4.3-15.13S177.1-.59,205.12,0s44.46,18.13,46.12,46.41c1.44,24.51-19.26,57.05-40.68,79.17C173.37,164,180,182,182.58,189.37c35.82-84.15,147-91.05,173.65-75.92,0,0-42-8-110.18,58.57,63.84-34.33,120-68.61,172.61-25.35,0,0-58.77-15.68-106,23.28-44.3,36.52-67,46.26-67,46.26s8.91,5.68,71-35.22c33.25-21.91,130.15-46.39,154.56,28.55,0,0-50.18-50.72-122.63,7.27-43,34.45-75,78.74-136.58,78.74s-93.57-45.38-93.57-87.79,32-68.66,62.14-94.16,54.12-54.13,54.12-71.33S224.4,14.54,211.35,14.54,188.51,25.22,182,36.78,166.57,71.34,132.91,65.4Z"/><text class="cls-2" transform="translate(98.28 347.12)">B<tspan class="cls-3" x="39.51" y="0">ELLEZA</tspan><tspan class="cls-4" x="190.25" y="0" xml:space="preserve"> G</tspan><tspan class="cls-5" x="262.06" y="0">L</tspan><tspan class="cls-3" x="284.17" y="0">O</tspan><tspan class="cls-6" x="317.87" y="0">B</tspan><tspan class="cls-3" x="341.07" y="0">AL</tspan></text><rect class="cls-1" y="360.2" width="589.53" height="2.3"/></svg>