<svg id="Capa_1" data-name="Capa 1" xmlns="http://www.w3.org/2000/svg" viewBox="0 0 31.95 31.94"><path d="M26.26.28a2.34,2.34,0,0,1,1.56.55C28.88,1.77,30,2.7,31,3.67a2.61,2.61,0,0,1,.07,3.66c-.73.86-1.51,1.69-2.26,2.54L16.69,23.33c-.53.59-1.05,1.18-1.59,1.75a1.61,1.61,0,0,1-.66.4c-2.26.61-4.52,1.19-6.77,1.78-.52.13-.86-.15-.78-.67.35-2.36.7-4.72,1.07-7.08A1,1,0,0,1,8.2,19L20.37,5.46c1.23-1.37,2.47-2.73,3.7-4.11A3.09,3.09,0,0,1,26.26.28ZM23,4.19,9.66,19A1.92,1.92,0,0,1,11.86,21L25.19,6.16ZM26,6.9,12.7,21.7a2.17,2.17,0,0,1,1.55.53,1.89,1.89,0,0,1,.57,1.52L28.2,8.87ZM23.74,3.37,28.94,8c.47-.53.95-1,1.34-1.54A1.54,1.54,0,0,0,30,4.29c-.92-.76-1.79-1.6-2.69-2.4A1.56,1.56,0,0,0,25,1.94C24.6,2.38,24.2,2.86,23.74,3.37ZM8.09,26l.5-.12L13,24.73c.76-.2.76-.2.73-1s-.23-1-1-.84a1.72,1.72,0,0,1-2-1.65c0-.2,0-.4,0-.6a.55.55,0,0,0-.59-.49H9Z" transform="translate(-0.03 -0.03)"/><path d="M16,32h-14C.63,32,0,31.37,0,30.07V1.94A1.66,1.66,0,0,1,1.93,0H16a.53.53,0,0,1,.59.52.54.54,0,0,1-.59.56H2c-.75,0-.9.14-.9.88V30c0,.73.16.88.86.88H30c.7,0,.86-.15.86-.88V16.18c0-.48.2-.74.54-.74s.54.27.54.74v14A1.61,1.61,0,0,1,30.2,32Z" transform="translate(-0.03 -0.03)"/></svg>